<svg version="1.1" id="Layer_1" xmlns="http://www.w3.org/2000/svg" xmlns:xlink="http://www.w3.org/1999/xlink" 
	 viewBox="0 0 512 512" xml:space="preserve">
<rect x="12.8" y="128" style="fill:#BFA779;" width="384" height="320"/>
<rect x="166.4" y="128" style="fill:#7F6F51;" width="76.8" height="166.4"/>
<polygon style="fill:#FEDEA1;" points="315.733,64 93.867,64 12.8,128 396.8,128 "/>
<rect x="166.4" y="64" style="fill:#BFA779;" width="76.8" height="64"/>
<path style="fill:#573A32;" d="M409.6,179.951V128c0-8.559-4.275-16.555-11.401-21.299l-76.8-51.2
	c-4.207-2.807-9.148-4.301-14.199-4.301H102.4c-5.052,0-9.993,1.493-14.199,4.301l-76.8,51.2C4.275,111.445,0,119.441,0,128v307.2
	c0,14.14,11.46,25.6,25.6,25.6H384c14.14,0,25.6-11.46,25.6-25.6v-26.351C467.191,402.475,512,353.69,512,294.4
	S467.191,186.325,409.6,179.951z M256,76.8h51.2l57.6,38.4H256V76.8z M179.2,76.8h51.2v38.4h-51.2V76.8z M179.2,140.8h51.2v140.8
	h-51.2V140.8z M102.4,76.8h51.2v38.4H44.8L102.4,76.8z M384,179.942c-31.01,3.447-58.249,19.217-76.8,42.317V200.96
	c0-7.074-5.726-12.8-12.8-12.8s-12.8,5.726-12.8,12.8v51.2c0,7.074,5.726,12.8,12.8,12.8h51.2c7.074,0,12.8-5.726,12.8-12.8
	s-5.726-12.8-12.8-12.8h-18.782c13.841-17.707,34.005-30.106,57.182-33.519v177.101c-19.473-2.918-36.787-12.245-50.125-25.617
	l-18.244,18.244c17.937,18.074,41.711,30.268,68.369,33.271V435.2H25.6V140.8h128v166.4H256V140.8h128V179.942z M409.6,382.976
	V205.824c43.349,6.246,76.8,43.529,76.8,88.576S452.949,376.73,409.6,382.976z"/>
</svg>